{"title":"Ghost Asylum S02E09 Fenwick Plantation 720p HDTV x264-DHD","uid":12594856,"size":1136675158,"categoryP":"video","categoryS":"hd___tv_shows","magnet":"?xt=urn:btih:e4b97ed21b681430ea5e2a1ad38d15d777bca1b3&amp;dn=Ghost+Asylum+S02E09+Fenwick+Plantation+720p+HDTV+x264-DHD&amp;tr=udp%3A%2F%2Ftracker.leechers-paradise.org%3A6969&amp;tr=udp%3A%2F%2Fzer0day.ch%3A1337&amp;tr=udp%3A%2F%2Fopen.demonii.com%3A1337&amp;tr=udp%3A%2F%2Ftracker.coppersurfer.tk%3A6969&amp;tr=udp%3A%2F%2Fexodus.desync.com%3A6969","seeders":0,"leechers":0,"uploader":"ReconRedneck2","files":1,"time":1445213462,"description":"Complete name :Ghost.Asylum.S02E09.Fenwick.Plantation.720p.HDTV.x264-DHD.mkv\r\n\r\nFormat                         : Matroska\r\nFormat version                 : Version 2\r\nFile size                      : 1.06 GiB\r\nDuration                       : 42mn 26s\r\nOverall bit rate               : 3 571 Kbps\r\nEncoded date                   : UTC 2015-10-17 01:22:45\r\nWriting application            : mkvmerge v4.8.0 ('SALVATION') built on May 24 2011 03:12:58\r\nWriting library                : libebml v1.2.0 + libmatroska v1.1.0\r\n\r\nVideo\r\nID                             : 1\r\nFormat                         : AVC\r\nFormat/Info                    : Advanced Video Codec\r\nFormat profile                 :   \r\nFormat settings, CABAC         : Yes\r\nFormat settings, ReFrames      : 5 frames\r\nCodec ID                       : V_MPEG4/ISO/AVC\r\nDuration                       : 42mn 26s\r\nBit rate                       : 3 116 Kbps\r\nWidth                          : 1 280 pixels\r\nHeight                         : 720 pixels\r\nDisplay aspect ratio           : 16:9\r\nFrame rate mode                : Constant\r\nFrame rate                     : 29.970 fps\r\nColor space                    : YUV\r\nChroma subsampling             : 4:2:0\r\nBit depth                      : 8 bits\r\nScan type                      : Progressive\r\nBits/(Pixel*Frame)             : 0.113\r\nStream size                    : 946 MiB (87%)\r\nWriting library                : x264 core 148 r2597 e86f3a1\r\nDefault                        : Yes\r\nForced                         : No\r\n\r\nAudio\r\nID                             : 2\r\nFormat                         : AC-3\r\nFormat/Info                    : Audio Coding 3\r\nMode extension                 : CM (complete main)\r\nFormat settings, Endianness    : Big\r\nCodec ID                       : A_AC3\r\nDuration                       : 42mn 26s\r\nBit rate mode                  : Constant\r\nBit rate                       : 384 Kbps\r\nChannel(s)                     : 6 channels\r\nChannel positions              : Front: L C R, Side: L R, LFE\r\nSampling rate                  : 48.0 KHz\r\nBit depth                      : 16 bits\r\nCompression mode               : Lossy\r\nStream size                    : 117 MiB (11%)\r\nDefault                        : Yes\r\nForced                         : No","torrent":{"xt":"urn:btih:e4b97ed21b681430ea5e2a1ad38d15d777bca1b3","amp;dn":"Ghost+Asylum+S02E09+Fenwick+Plantation+720p+HDTV+x264-DHD","amp;tr":["udp%3A%2F%2Ftracker.leechers-paradise.org%3A6969","udp%3A%2F%2Fzer0day.ch%3A1337","udp%3A%2F%2Fopen.demonii.com%3A1337","udp%3A%2F%2Ftracker.coppersurfer.tk%3A6969","udp%3A%2F%2Fexodus.desync.com%3A6969"],"infoHash":"e4b97ed21b681430ea5e2a1ad38d15d777bca1b3","infoHashBuffer":{"type":"Buffer","data":[228,185,126,210,27,104,20,48,234,94,42,26,211,141,21,215,119,188,161,179]},"announce":[],"urlList":[]}}